<svg viewBox="0 0 1030 1020" width="1030" height="1020" xmlns="http://www.w3.org/2000/svg" role="img" aria-label="시각 형식 결정 흐름도"><style>:root{--band:#F2F6FB;--line:#DDE4ED;--ink:#101828;--muted:#5A6B84;--accent:#2563EB;--accent-ink:#1D4ED8;--q-fill:#EAF0FE;--q-num:#fff;--leaf-on:#F5F8FE;--wire:#93A6C0} text{font-family:"IBM Plex Sans KR","Apple SD Gothic Neo","Malgun Gothic",sans-serif}</style><rect x="40" y="16" width="330" height="58" rx="9" fill="var(--band)" stroke="var(--line)" stroke-width="1.4"/>
<text x="205.0" y="41" font-size="15.5" font-weight="700" fill="var(--ink)" text-anchor="middle">이 장에서 설명할 주 개념</text>
<text x="205.0" y="60" font-size="12.5" fill="var(--muted)" text-anchor="middle">핵심 문장 한 줄과 원고 문안</text>
<line x1="205.0" y1="74" x2="205.0" y2="94" stroke="var(--wire)" stroke-width="1.6"/>
<polygon points="205.0,104 199.0,94 211.0,94" fill="var(--wire)"/>
<polygon points="205.0,112.0 370,160 205.0,208.0 40,160" fill="var(--q-fill)" stroke="var(--accent)" stroke-width="2"/>
<text x="205.0" y="154" font-size="17" font-weight="700" fill="var(--accent-ink)" text-anchor="middle">실물을 봐야 아는가</text>
<text x="205.0" y="174" font-size="12.5" fill="var(--muted)" text-anchor="middle">매체 판정</text>
<rect x="186.0" y="99.0" width="38" height="22" rx="5" fill="var(--accent)"/>
<text x="205.0" y="115.0" font-size="12.5" font-weight="700" fill="var(--q-num)" text-anchor="middle" font-family="ui-monospace,Menlo,monospace">Q1</text>
<line x1="370" y1="160" x2="500" y2="160" stroke="var(--wire)" stroke-width="1.6"/>
<line x1="500" y1="145.0" x2="500" y2="205.0" stroke="var(--wire)" stroke-width="1.6"/>
<line x1="500" y1="145.0" x2="550" y2="145.0" stroke="var(--wire)" stroke-width="1.6"/>
<polygon points="558,145.0 549,140.0 549,150.0" fill="var(--wire)"/>
<line x1="500" y1="205.0" x2="550" y2="205.0" stroke="var(--wire)" stroke-width="1.6"/>
<polygon points="558,205.0 549,200.0 549,210.0" fill="var(--wire)"/>
<rect x="560" y="120" width="430" height="50" rx="9" fill="var(--leaf-on)" stroke="var(--accent)" stroke-width="1.6"/>
<text x="578" y="150.0" font-size="15" font-weight="600" fill="var(--ink)">화면을 봐야 안다</text>
<text x="972" y="150.0" font-size="14.5" font-weight="600" fill="var(--accent-ink)" text-anchor="end" font-family="ui-monospace,Menlo,monospace">shot</text>
<rect x="560" y="180" width="430" height="50" rx="9" fill="var(--leaf-on)" stroke="var(--accent)" stroke-width="1.6"/>
<text x="578" y="210.0" font-size="15" font-weight="600" fill="var(--ink)">텍스트 실물을 나란히 봐야 한다</text>
<text x="972" y="210.0" font-size="14.5" font-weight="600" fill="var(--accent-ink)" text-anchor="end" font-family="ui-monospace,Menlo,monospace">table</text>
<line x1="205.0" y1="208.0" x2="205.0" y2="244.0" stroke="var(--wire)" stroke-width="1.6"/>
<polygon points="205.0,252.0 199.0,242.0 211.0,242.0" fill="var(--wire)"/>
<polygon points="205.0,300.0 370,348.0 205.0,396.0 40,348.0" fill="var(--q-fill)" stroke="var(--accent)" stroke-width="2"/>
<text x="205.0" y="342.0" font-size="17" font-weight="700" fill="var(--accent-ink)" text-anchor="middle">뼈대 관계는 무엇인가</text>
<text x="205.0" y="362.0" font-size="12.5" fill="var(--muted)" text-anchor="middle">여덟 갈래, 서로 배타적</text>
<rect x="186.0" y="287.0" width="38" height="22" rx="5" fill="var(--accent)"/>
<text x="205.0" y="303.0" font-size="12.5" font-weight="700" fill="var(--q-num)" text-anchor="middle" font-family="ui-monospace,Menlo,monospace">Q2</text>
<line x1="370" y1="348.0" x2="500" y2="348.0" stroke="var(--wire)" stroke-width="1.6"/>
<line x1="500" y1="277.0" x2="500" y2="697.0" stroke="var(--wire)" stroke-width="1.6"/>
<line x1="500" y1="277.0" x2="550" y2="277.0" stroke="var(--wire)" stroke-width="1.6"/>
<polygon points="558,277.0 549,272.0 549,282.0" fill="var(--wire)"/>
<line x1="500" y1="337.0" x2="550" y2="337.0" stroke="var(--wire)" stroke-width="1.6"/>
<polygon points="558,337.0 549,332.0 549,342.0" fill="var(--wire)"/>
<line x1="500" y1="397.0" x2="550" y2="397.0" stroke="var(--wire)" stroke-width="1.6"/>
<polygon points="558,397.0 549,392.0 549,402.0" fill="var(--wire)"/>
<line x1="500" y1="457.0" x2="550" y2="457.0" stroke="var(--wire)" stroke-width="1.6"/>
<polygon points="558,457.0 549,452.0 549,462.0" fill="var(--wire)"/>
<line x1="500" y1="517.0" x2="550" y2="517.0" stroke="var(--wire)" stroke-width="1.6"/>
<polygon points="558,517.0 549,512.0 549,522.0" fill="var(--wire)"/>
<line x1="500" y1="577.0" x2="550" y2="577.0" stroke="var(--wire)" stroke-width="1.6"/>
<polygon points="558,577.0 549,572.0 549,582.0" fill="var(--wire)"/>
<line x1="500" y1="637.0" x2="550" y2="637.0" stroke="var(--wire)" stroke-width="1.6"/>
<polygon points="558,637.0 549,632.0 549,642.0" fill="var(--wire)"/>
<line x1="500" y1="697.0" x2="550" y2="697.0" stroke="var(--wire)" stroke-width="1.6"/>
<polygon points="558,697.0 549,692.0 549,702.0" fill="var(--wire)"/>
<rect x="560" y="252" width="430" height="50" rx="9" fill="none" stroke="var(--accent)" stroke-width="1.6" stroke-dasharray="5 4"/>
<text x="578" y="282.0" font-size="15" font-weight="600" fill="var(--ink)">대비 ﹣ A와 B가 다르다</text>
<text x="972" y="282.0" font-size="14.5" font-weight="600" fill="var(--accent-ink)" text-anchor="end" font-family="ui-monospace,Menlo,monospace">Q3 으로</text>
<rect x="560" y="312" width="430" height="50" rx="9" fill="var(--leaf-on)" stroke="var(--accent)" stroke-width="1.6"/>
<text x="578" y="342.0" font-size="15" font-weight="600" fill="var(--ink)">순서 ﹣ A 다음 B</text>
<text x="972" y="342.0" font-size="14.5" font-weight="600" fill="var(--accent-ink)" text-anchor="end" font-family="ui-monospace,Menlo,monospace">stages</text>
<rect x="560" y="372" width="430" height="50" rx="9" fill="var(--leaf-on)" stroke="var(--accent)" stroke-width="1.6"/>
<text x="578" y="402.0" font-size="15" font-weight="600" fill="var(--ink)">포함 ﹣ A 안에 B</text>
<text x="972" y="402.0" font-size="14.5" font-weight="600" fill="var(--accent-ink)" text-anchor="end" font-family="ui-monospace,Menlo,monospace">layers / nested</text>
<rect x="560" y="432" width="430" height="50" rx="9" fill="var(--leaf-on)" stroke="var(--accent)" stroke-width="1.6"/>
<text x="578" y="462.0" font-size="15" font-weight="600" fill="var(--ink)">분배 ﹣ 하나가 여럿에</text>
<text x="972" y="462.0" font-size="14.5" font-weight="600" fill="var(--accent-ink)" text-anchor="end" font-family="ui-monospace,Menlo,monospace">hub</text>
<rect x="560" y="492" width="430" height="50" rx="9" fill="var(--leaf-on)" stroke="var(--accent)" stroke-width="1.6"/>
<text x="578" y="522.0" font-size="15" font-weight="600" fill="var(--ink)">분기 ﹣ 조건에 따라</text>
<text x="972" y="522.0" font-size="14.5" font-weight="600" fill="var(--accent-ink)" text-anchor="end" font-family="ui-monospace,Menlo,monospace">branch</text>
<rect x="560" y="552" width="430" height="50" rx="9" fill="var(--leaf-on)" stroke="var(--accent)" stroke-width="1.6"/>
<text x="578" y="582.0" font-size="15" font-weight="600" fill="var(--ink)">병렬 ﹣ 동등한 N개</text>
<text x="972" y="582.0" font-size="14.5" font-weight="600" fill="var(--accent-ink)" text-anchor="end" font-family="ui-monospace,Menlo,monospace">cards</text>
<rect x="560" y="612" width="430" height="50" rx="9" fill="var(--leaf-on)" stroke="var(--accent)" stroke-width="1.6"/>
<text x="578" y="642.0" font-size="15" font-weight="600" fill="var(--ink)">위치 ﹣ 무엇이 어디에</text>
<text x="972" y="642.0" font-size="14.5" font-weight="600" fill="var(--accent-ink)" text-anchor="end" font-family="ui-monospace,Menlo,monospace">placemap</text>
<rect x="560" y="672" width="430" height="50" rx="9" fill="var(--leaf-on)" stroke="var(--accent)" stroke-width="1.6"/>
<text x="578" y="702.0" font-size="15" font-weight="600" fill="var(--ink)">양 ﹣ 크기 차이</text>
<text x="972" y="702.0" font-size="14.5" font-weight="600" fill="var(--accent-ink)" text-anchor="end" font-family="ui-monospace,Menlo,monospace">bars</text>
<path d="M 1002 277.0 h 26 V 800 H 205.0" fill="none" stroke="var(--accent)" stroke-width="1.6" stroke-dasharray="6 5"/>
<polygon points="205.0,848.0 199.0,810 211.0,810" fill="var(--accent)" transform="translate(0,-14)"/>
<polygon points="205.0,806.0 370,854.0 205.0,902.0 40,854.0" fill="var(--q-fill)" stroke="var(--accent)" stroke-width="2"/>
<text x="205.0" y="848.0" font-size="17" font-weight="700" fill="var(--accent-ink)" text-anchor="middle">대비의 형태는 무엇인가</text>
<text x="205.0" y="868.0" font-size="12.5" fill="var(--muted)" text-anchor="middle">Q2 에서 대비로 온 경우에만</text>
<rect x="186.0" y="793.0" width="38" height="22" rx="5" fill="var(--accent)"/>
<text x="205.0" y="809.0" font-size="12.5" font-weight="700" fill="var(--q-num)" text-anchor="middle" font-family="ui-monospace,Menlo,monospace">Q3</text>
<line x1="370" y1="854.0" x2="500" y2="854.0" stroke="var(--wire)" stroke-width="1.6"/>
<line x1="500" y1="785.0" x2="500" y2="965.0" stroke="var(--wire)" stroke-width="1.6"/>
<line x1="500" y1="785.0" x2="550" y2="785.0" stroke="var(--wire)" stroke-width="1.6"/>
<polygon points="558,785.0 549,780.0 549,790.0" fill="var(--wire)"/>
<line x1="500" y1="845.0" x2="550" y2="845.0" stroke="var(--wire)" stroke-width="1.6"/>
<polygon points="558,845.0 549,840.0 549,850.0" fill="var(--wire)"/>
<line x1="500" y1="905.0" x2="550" y2="905.0" stroke="var(--wire)" stroke-width="1.6"/>
<polygon points="558,905.0 549,900.0 549,910.0" fill="var(--wire)"/>
<line x1="500" y1="965.0" x2="550" y2="965.0" stroke="var(--wire)" stroke-width="1.6"/>
<polygon points="558,965.0 549,960.0 549,970.0" fill="var(--wire)"/>
<rect x="560" y="760" width="430" height="50" rx="9" fill="var(--leaf-on)" stroke="var(--accent)" stroke-width="1.6"/>
<text x="578" y="790.0" font-size="15" font-weight="600" fill="var(--ink)">판단 축이 두 개다</text>
<text x="972" y="790.0" font-size="14.5" font-weight="600" fill="var(--accent-ink)" text-anchor="end" font-family="ui-monospace,Menlo,monospace">matrix</text>
<rect x="560" y="820" width="430" height="50" rx="9" fill="var(--leaf-on)" stroke="var(--accent)" stroke-width="1.6"/>
<text x="578" y="850.0" font-size="15" font-weight="600" fill="var(--ink)">시점별로 다르다</text>
<text x="972" y="850.0" font-size="14.5" font-weight="600" fill="var(--accent-ink)" text-anchor="end" font-family="ui-monospace,Menlo,monospace">timeline</text>
<rect x="560" y="880" width="430" height="50" rx="9" fill="var(--leaf-on)" stroke="var(--accent)" stroke-width="1.6"/>
<text x="578" y="910.0" font-size="15" font-weight="600" fill="var(--ink)">좌우가 다른 구조로 돈다</text>
<text x="972" y="910.0" font-size="14.5" font-weight="600" fill="var(--accent-ink)" text-anchor="end" font-family="ui-monospace,Menlo,monospace">two_panel</text>
<rect x="560" y="940" width="430" height="50" rx="9" fill="var(--leaf-on)" stroke="var(--accent)" stroke-width="1.6"/>
<text x="578" y="970.0" font-size="15" font-weight="600" fill="var(--ink)">속성 축이 3개 이상</text>
<text x="972" y="970.0" font-size="14.5" font-weight="600" fill="var(--accent-ink)" text-anchor="end" font-family="ui-monospace,Menlo,monospace">table</text></svg>